<svg viewBox="0 0 48 36" fill="none" xmlns="http://www.w3.org/2000/svg">
<path d="M40.634 4.311C37.575 2.908 34.294 1.873 30.864 1.281C30.801 1.269 30.739 1.298 30.707 1.355C30.285 2.106 29.817 3.085 29.49 3.854C25.801 3.302 22.13 3.302 18.517 3.854C18.189 3.068 17.705 2.106 17.281 1.355C17.249 1.3 17.187 1.271 17.124 1.281C13.696 1.871 10.415 2.906 7.354 4.311C7.327 4.323 7.305 4.342 7.29 4.367C1.067 13.663 -0.638 22.731 0.198 31.687C0.202 31.731 0.227 31.773 0.261 31.8C4.366 34.815 8.343 36.645 12.247 37.858C12.309 37.877 12.375 37.855 12.415 37.803C13.338 36.542 14.161 35.213 14.867 33.815C14.909 33.733 14.869 33.636 14.784 33.603C13.478 33.108 12.235 32.504 11.039 31.819C10.945 31.763 10.937 31.628 11.024 31.563C11.276 31.375 11.528 31.179 11.768 30.981C11.811 30.944 11.872 30.937 11.923 30.96C19.779 34.546 28.283 34.546 36.046 30.96C36.097 30.935 36.158 30.942 36.203 30.979C36.443 31.177 36.695 31.375 36.948 31.563C37.035 31.628 37.03 31.763 36.935 31.819C35.739 32.518 34.496 33.108 33.189 33.601C33.104 33.634 33.066 33.733 33.108 33.815C33.829 35.211 34.652 36.54 35.558 37.801C35.596 37.855 35.664 37.877 35.726 37.858C39.648 36.645 43.625 34.815 47.731 31.8C47.767 31.773 47.79 31.733 47.793 31.689C48.794 21.335 46.117 12.341 40.696 4.368C40.683 4.342 40.661 4.323 40.634 4.311ZM16.04 26.234C13.675 26.234 11.726 24.063 11.726 21.396C11.726 18.73 13.637 16.558 16.04 16.558C18.462 16.558 20.392 18.749 20.354 21.396C20.354 24.063 18.443 26.234 16.04 26.234ZM31.989 26.234C29.625 26.234 27.676 24.063 27.676 21.396C27.676 18.73 29.587 16.558 31.989 16.558C34.411 16.558 36.341 18.749 36.303 21.396C36.303 24.063 34.411 26.234 31.989 26.234Z" fill="white"/>
</svg>