<svg viewBox="0 0 48 48" fill="none" xmlns="http://www.w3.org/2000/svg">
<path fill-rule="evenodd" clip-rule="evenodd" d="M24.02 0C10.74 0 0 10.817 0 24.198C0 34.895 6.88 43.95 16.42 47.154C17.62 47.395 18.05 46.634 18.05 45.993C18.05 45.432 18.02 43.509 18.02 41.505C11.33 42.948 9.94 38.621 9.94 38.621C8.87 35.816 7.28 35.096 7.28 35.096C5.09 33.613 7.44 33.613 7.44 33.613C9.86 33.774 11.14 36.097 11.14 36.097C13.28 39.783 16.74 38.741 18.13 38.1C18.33 36.538 18.97 35.456 19.65 34.855C14.32 34.294 8.71 32.211 8.71 22.916C8.71 20.272 9.66 18.109 11.17 16.426C10.94 15.825 10.1 13.341 11.41 10.016C11.41 10.016 13.44 9.375 18.01 12.5C19.97 11.97 21.99 11.7 24.02 11.698C26.05 11.698 28.12 11.979 30.02 12.5C34.6 9.375 36.63 10.016 36.63 10.016C37.94 13.341 37.1 15.825 36.86 16.426C38.42 18.109 39.33 20.272 39.33 22.916C39.33 32.211 33.72 34.254 28.35 34.855C29.23 35.616 29.98 37.058 29.98 39.342C29.98 42.587 29.95 45.191 29.95 45.992C29.95 46.634 30.38 47.395 31.58 47.155C41.12 43.949 48 34.895 48 24.198C48.04 10.817 37.26 0 24.02 0Z" fill="white"/>
</svg>