<svg viewBox="0 0 48 48" fill="none" xmlns="http://www.w3.org/2000/svg">
<path d="M47.539 19.547H24.511V28.775H37.743C37.53 30.081 37.053 31.365 36.353 32.537C35.552 33.879 34.561 34.9 33.546 35.678C30.504 38.009 26.958 38.486 24.495 38.486C18.274 38.486 12.958 34.465 10.9 29.001C10.817 28.803 10.762 28.598 10.695 28.396C10.24 27.005 9.992 25.532 9.992 24.002C9.992 22.408 10.261 20.883 10.751 19.443C12.686 13.763 18.122 9.52 24.5 9.52C25.782 9.52 27.018 9.673 28.189 9.977C30.867 10.673 32.76 12.044 33.921 13.129L40.923 6.272C36.663 2.366 31.111 0 24.488 0C19.193 0 14.305 1.65 10.299 4.438C7.051 6.699 4.386 9.726 2.588 13.242C0.916 16.501 0 20.114 0 23.998C0 27.882 0.917 31.532 2.59 34.762V34.784C4.356 38.212 6.939 41.165 10.079 43.415C12.822 45.381 17.74 48 24.488 48C28.368 48 31.808 47.3 34.841 45.989C37.028 45.043 38.967 43.81 40.722 42.224C43.041 40.129 44.858 37.538 46.097 34.557C47.337 31.576 48 28.204 48 24.549C48 22.847 47.829 21.118 47.539 19.547Z" fill="white"/>
</svg>